<?xml version="1.0" encoding="UTF-8" standalone="no"?>
<!DOCTYPE svg PUBLIC "-//W3C//DTD SVG 1.1//EN" "http://www.w3.org/Graphics/SVG/1.1/DTD/svg11.dtd">
<svg width="100%" height="100%" viewBox="0 0 512 512" version="1.1"
    xmlns="http://www.w3.org/2000/svg"
    xmlns:xlink="http://www.w3.org/1999/xlink" xml:space="preserve"
    xmlns:serif="http://www.serif.com/" style="fill-rule:evenodd;clip-rule:evenodd;stroke-linejoin:round;stroke-miterlimit:2;">
    <style>
        g{
            fill: #000
        }
        @media (prefers-color-scheme: dark) {
          g {
            fill: #fff;
          }
        } 
    </style>
    <g transform="matrix(1.6293,0,0,1.6293,-161.1,-175.438)">
        <path d="M393.981,196.093L256,129.44L118.019,196.093L98.877,380.513L173.97,321.156L253.36,397.618L256,400.161L338.03,321.156C338.03,321.156 413.123,380.513 413.123,380.513L393.981,196.093ZM259.806,385.926L333.215,315.225L259.806,151.462L259.806,385.926ZM178.785,315.225L252.194,385.926L252.194,151.462L178.785,315.225ZM123.907,213.093L108.311,363.352L169.532,314.961L123.907,213.093ZM388.092,213.093L342.468,314.961L403.689,363.352L388.092,213.093ZM337.781,306.801L385.429,200.416L263.742,141.634L337.781,306.801ZM126.571,200.416L174.219,306.801L248.258,141.634L126.571,200.416Z"/>
    </g>
</svg>
